<?xml version="1.0" encoding="utf-8"?>
<!-- Generator: Adobe Illustrator 24.0.1, SVG Export Plug-In . SVG Version: 6.00 Build 0)  -->
<svg version="1.1" id="Camada_1" xmlns="http://www.w3.org/2000/svg" xmlns:xlink="http://www.w3.org/1999/xlink" x="0px" y="0px"
	 viewBox="0 0 2000 1200" style="enable-background:new 0 0 2000 1200;" xml:space="preserve">
<style type="text/css">
	.st0{fill:#D62721;}
	.st1{fill:#EC7F28;}
	.st2{fill:#F3A51C;}
	.st3{fill:#FFFFFF;}
	.st4{fill:#F9CA6F;}
	.st5{fill:#E23434;}
</style>
<g id="Camada_1_1_">
	<g>
		<g>
			<path class="st0" d="M599.8,544.5l-93.9-16.9c10.6-37.8,28.7-65.8,54.5-84c25.8-18.2,64.2-27.2,115-27.2
				c46.2,0,80.5,5.5,103.2,16.4c22.6,10.9,38.5,24.9,47.8,41.7c9.3,16.8,13.8,47.8,13.8,92.7L839,688c0,34.4,1.7,59.7,4.9,76.1
				c3.3,16.3,9.5,33.8,18.6,52.5H760.1c-2.7-6.9-6-17.1-10-30.6c-1.8-6.2-2.9-10.2-3.7-12.2c-17.7,17.2-36.6,30.1-56.8,38.7
				c-20.2,8.6-41.7,12.9-64.5,12.9c-40.3,0-72.1-10.9-95.3-32.8c-23.2-21.9-34.8-49.5-34.8-82.9c0-22.1,5.3-41.9,15.9-59.1
				c10.6-17.4,25.4-30.6,44.4-39.8c19-9.3,46.5-17.3,82.4-24.1c48.4-9.1,82-17.5,100.6-25.5v-10.3c0-19.9-4.9-34.1-14.7-42.6
				c-9.9-8.5-28.4-12.7-55.7-12.7c-18.4,0-32.8,3.6-43.1,10.8c-10.3,7.2-18.7,20-25,38.2L599.8,544.5z M738.3,628.5
				c-13.3,4.4-34.3,9.7-63,15.9c-28.7,6.2-47.5,12.2-56.4,18.1c-13.5,9.6-20.3,21.8-20.3,36.5s5.4,27.1,16.2,37.6
				c10.8,10.6,24.6,15.9,41.2,15.9c18.7,0,36.5-6.2,53.4-18.4c12.5-9.3,20.8-20.8,24.7-34.3c2.7-8.8,4.1-25.6,4.1-50.5L738.3,628.5
				L738.3,628.5z"/>
			<path class="st0" d="M1097.4,425.1v82.6h-70.8v157.7c0,31.9,0.7,50.6,2,55.9c1.3,5.3,4.4,9.6,9.3,13c4.8,3.4,10.7,5.2,17.5,5.2
				c9.6,0,23.4-3.3,41.7-10l8.8,80.4c-24.1,10.3-51.4,15.5-81.8,15.5c-18.7,0-35.5-3.2-50.5-9.4s-26-14.4-33-24.3
				c-7-10-11.9-23.4-14.5-40.4c-2.2-12.1-3.3-36.4-3.3-73V507.7h-47.5v-82.6h47.5v-77.7l103.9-60.5v138.2L1097.4,425.1L1097.4,425.1
				z"/>
			<path class="st0" d="M1371.8,691.8l103.2,17.4c-13.3,37.8-34.2,66.6-62.8,86.5c-28.6,19.7-64.4,29.7-107.4,29.7
				c-68,0-118.4-22.2-151.1-66.7c-25.8-35.6-38.7-80.5-38.7-134.9c0-64.9,16.9-115.6,50.8-152.4s76.8-55.1,128.6-55.1
				c58.3,0,104.2,19.2,137.8,57.6c33.7,38.4,49.8,97.4,48.3,176.7h-259.4c0.7,30.8,9.1,54.6,25,71.6c16,17.1,35.9,25.6,59.7,25.6
				c16.2,0,29.9-4.4,40.9-13.3c11-8.8,19.4-23.1,25-42.7H1371.8z M1377.7,587.1c-0.7-30-8.5-52.8-23.2-68.4
				c-14.7-15.6-32.7-23.4-53.8-23.4c-22.6,0-41.2,8.2-56,24.7c-14.7,16.5-22,38.9-21.8,67.1L1377.7,587.1L1377.7,587.1z"/>
			<path class="st0" d="M1882.1,540.8l-102,18.4c-3.4-20.4-11.3-35.8-23.4-46.1c-12.2-10.3-27.9-15.5-47.3-15.5
				c-25.8,0-46.4,8.9-61.7,26.7c-15.3,17.8-23,47.6-23,89.4c0,46.4,7.8,79.2,23.4,98.4c15.6,19.1,36.6,28.7,62.8,28.7
				c19.7,0,35.8-5.6,48.3-16.7c12.5-11.2,21.4-30.4,26.5-57.6l101.7,17.4c-10.6,46.7-30.8,82-60.8,105.7
				c-30,23.8-70.1,35.8-120.6,35.8c-57.3,0-102.8-18.1-136.9-54.2c-34-36.1-51-86.1-51-150s17.1-114.9,51.2-151
				c34.1-36,80.4-54,138.5-54c47.7,0,85.6,10.2,113.7,30.8C1849.6,467.5,1869.7,498.7,1882.1,540.8L1882.1,540.8z"/>
		</g>
		<g>
			<path class="st1" d="M608.6,545l-93.9-16.9c10.6-37.8,28.7-65.8,54.5-84c25.8-18.2,64.2-27.2,115-27.2
				c46.2,0,80.5,5.5,103.2,16.4c22.6,10.9,38.5,24.9,47.8,41.7c9.3,16.8,13.8,47.8,13.8,92.7l-1.1,120.9c0,34.4,1.7,59.7,4.9,76.1
				c3.3,16.3,9.5,33.8,18.6,52.5H768.9c-2.7-6.9-6-17.1-10-30.6c-1.8-6.2-2.9-10.2-3.7-12.2c-17.7,17.2-36.6,30.1-56.8,38.7
				c-20.2,8.6-41.7,12.9-64.5,12.9c-40.3,0-72.1-10.9-95.3-32.8c-23.2-21.9-34.8-49.5-34.8-82.9c0-22.1,5.3-41.9,15.9-59.1
				c10.6-17.4,25.4-30.6,44.4-39.8c19-9.3,46.5-17.3,82.4-24.1c48.4-9.1,82-17.5,100.6-25.5v-10.3c0-19.9-4.9-34.1-14.7-42.6
				c-9.9-8.5-28.4-12.7-55.7-12.7c-18.4,0-32.8,3.6-43.1,10.8c-10.3,7.2-18.7,20-25,38.2L608.6,545z M747.1,629
				c-13.3,4.4-34.3,9.7-63,15.9c-28.7,6.2-47.5,12.2-56.4,18.1c-13.5,9.6-20.3,21.8-20.3,36.5s5.4,27.1,16.2,37.6
				c10.8,10.6,24.6,15.9,41.2,15.9c18.7,0,36.5-6.2,53.4-18.4c12.5-9.3,20.8-20.8,24.7-34.3c2.7-8.8,4.1-25.6,4.1-50.5L747.1,629
				L747.1,629z"/>
			<path class="st1" d="M1106.3,425.6v82.6h-70.8v157.7c0,31.9,0.7,50.6,2,55.9c1.3,5.3,4.4,9.6,9.3,13c4.8,3.4,10.7,5.2,17.5,5.2
				c9.6,0,23.4-3.3,41.7-10l8.8,80.4c-24.1,10.3-51.4,15.5-81.8,15.5c-18.7,0-35.5-3.2-50.5-9.4c-15-6.3-26-14.4-33-24.3
				c-7-10-11.9-23.4-14.5-40.4c-2.2-12.1-3.3-36.4-3.3-73V508.3h-47.5v-82.6h47.5V348l103.9-60.5v138.2L1106.3,425.6L1106.3,425.6z"
				/>
			<path class="st1" d="M1380.7,692.4l103.2,17.4c-13.3,37.8-34.2,66.6-62.8,86.5c-28.6,19.7-64.4,29.7-107.4,29.7
				c-68,0-118.4-22.2-151.1-66.7c-25.8-35.6-38.7-80.5-38.7-134.9c0-64.9,16.9-115.6,50.8-152.4c33.9-36.7,76.8-55.1,128.6-55.1
				c58.3,0,104.2,19.2,137.8,57.6c33.7,38.4,49.8,97.4,48.3,176.7h-259.4c0.7,30.8,9.1,54.6,25,71.6c16,17.1,35.9,25.6,59.7,25.6
				c16.2,0,29.9-4.4,40.9-13.3c11-8.8,19.4-23.1,25-42.7H1380.7z M1386.6,587.7c-0.7-30-8.5-52.8-23.2-68.4
				c-14.7-15.6-32.7-23.4-53.8-23.4c-22.6,0-41.2,8.2-56,24.7c-14.7,16.5-22,38.9-21.8,67.1L1386.6,587.7L1386.6,587.7z"/>
			<path class="st1" d="M1890.9,541.3l-102,18.4c-3.4-20.4-11.3-35.8-23.4-46.1c-12.2-10.3-27.9-15.5-47.3-15.5
				c-25.8,0-46.4,8.9-61.7,26.7s-23,47.6-23,89.4c0,46.4,7.8,79.2,23.4,98.4c15.6,19.1,36.6,28.7,62.8,28.7
				c19.7,0,35.8-5.6,48.3-16.7s21.4-30.4,26.5-57.6l101.7,17.4c-10.6,46.7-30.8,82-60.8,105.7c-30,23.8-70.1,35.8-120.6,35.8
				c-57.3,0-102.8-18.1-136.9-54.2c-34-36.1-51-86.1-51-150s17.1-114.9,51.2-151c34.1-36,80.4-54,138.5-54
				c47.7,0,85.6,10.2,113.7,30.8C1858.4,468,1878.6,499.3,1890.9,541.3L1890.9,541.3z"/>
		</g>
		<g>
			<path class="st2" d="M623.6,544.5l-93.9-16.9c10.6-37.8,28.7-65.8,54.5-84c25.8-18.2,64.2-27.2,115-27.2
				c46.2,0,80.5,5.5,103.2,16.4c22.6,10.9,38.5,24.9,47.8,41.7c9.3,16.8,13.8,47.8,13.8,92.7L862.8,688c0,34.4,1.7,59.7,4.9,76.1
				c3.3,16.3,9.5,33.8,18.6,52.5H783.9c-2.7-6.9-6-17.1-10-30.6c-1.8-6.2-2.9-10.2-3.7-12.2c-17.7,17.2-36.6,30.1-56.8,38.7
				c-20.2,8.6-41.7,12.9-64.5,12.9c-40.3,0-72.1-10.9-95.3-32.8s-34.8-49.5-34.8-82.9c0-22.1,5.3-41.9,15.9-59.1
				c10.6-17.4,25.4-30.6,44.4-39.8c19-9.3,46.5-17.3,82.4-24.1c48.4-9.1,82-17.5,100.6-25.5v-10.3c0-19.9-4.9-34.1-14.7-42.6
				c-9.9-8.5-28.4-12.7-55.7-12.7c-18.4,0-32.8,3.6-43.1,10.8c-10.3,7.2-18.7,20-25,38.2L623.6,544.5z M762.1,628.5
				c-13.3,4.4-34.3,9.7-63,15.9c-28.7,6.2-47.5,12.2-56.4,18.1c-13.5,9.6-20.3,21.8-20.3,36.5s5.4,27.1,16.2,37.6
				c10.8,10.6,24.6,15.9,41.2,15.9c18.7,0,36.5-6.2,53.4-18.4c12.5-9.3,20.8-20.8,24.7-34.3c2.7-8.8,4.1-25.6,4.1-50.5L762.1,628.5
				L762.1,628.5z"/>
			<path class="st2" d="M1121.3,425.1v82.6h-70.8v157.7c0,31.9,0.7,50.6,2,55.9c1.3,5.3,4.4,9.6,9.3,13c4.8,3.4,10.7,5.2,17.5,5.2
				c9.6,0,23.4-3.3,41.7-10l8.8,80.4c-24.1,10.3-51.4,15.5-81.8,15.5c-18.7,0-35.5-3.2-50.5-9.4c-15-6.3-26-14.4-33-24.3
				c-7-10-11.9-23.4-14.5-40.4c-2.2-12.1-3.3-36.4-3.3-73V507.7h-47.5v-82.6h47.5v-77.7l103.9-60.5v138.2L1121.3,425.1L1121.3,425.1
				z"/>
			<path class="st2" d="M1395.6,691.8l103.2,17.4c-13.3,37.8-34.2,66.6-62.8,86.5c-28.6,19.7-64.4,29.7-107.4,29.7
				c-68,0-118.4-22.2-151.1-66.7c-25.8-35.6-38.7-80.5-38.7-134.9c0-64.9,16.9-115.6,50.8-152.4c33.9-36.7,76.8-55.1,128.6-55.1
				c58.3,0,104.2,19.2,137.8,57.6c33.7,38.4,49.8,97.4,48.3,176.7h-259.4c0.7,30.8,9.1,54.6,25,71.6c16,17.1,35.9,25.6,59.7,25.6
				c16.2,0,29.9-4.4,40.9-13.3c11-8.8,19.4-23.1,25-42.7H1395.6z M1401.5,587.1c-0.7-30-8.5-52.8-23.2-68.4
				c-14.7-15.6-32.7-23.4-53.8-23.4c-22.6,0-41.2,8.2-56,24.7c-14.7,16.5-22,38.9-21.8,67.1L1401.5,587.1L1401.5,587.1z"/>
			<path class="st2" d="M1905.9,540.8l-102,18.4c-3.4-20.4-11.3-35.8-23.4-46.1c-12.2-10.3-27.9-15.5-47.3-15.5
				c-25.8,0-46.4,8.9-61.7,26.7c-15.3,17.8-23,47.6-23,89.4c0,46.4,7.8,79.2,23.4,98.4c15.6,19.1,36.6,28.7,62.8,28.7
				c19.7,0,35.8-5.6,48.3-16.7c12.5-11.2,21.4-30.4,26.5-57.6l101.7,17.4c-10.6,46.7-30.8,82-60.8,105.7
				c-30,23.8-70.1,35.8-120.6,35.8c-57.3,0-102.8-18.1-136.9-54.2c-34-36.1-51-86.1-51-150s17.1-114.9,51.2-151
				c34.1-36,80.4-54,138.5-54c47.7,0,85.6,10.2,113.7,30.8C1873.4,467.5,1893.5,498.7,1905.9,540.8L1905.9,540.8z"/>
		</g>
		<g>
			<path class="st3" d="M637.4,545l-93.9-16.9c10.6-37.8,28.7-65.8,54.5-84c25.8-18.2,64.2-27.2,115-27.2
				c46.2,0,80.5,5.5,103.2,16.4c22.6,10.9,38.5,24.9,47.8,41.7c9.3,16.8,13.8,47.8,13.8,92.7l-1.1,120.9c0,34.4,1.7,59.7,4.9,76.1
				c3.3,16.3,9.5,33.8,18.6,52.5H797.7c-2.7-6.9-6-17.1-10-30.6c-1.8-6.2-2.9-10.2-3.7-12.2c-17.7,17.2-36.6,30.1-56.8,38.7
				c-20.2,8.6-41.7,12.9-64.5,12.9c-40.3,0-72.1-10.9-95.3-32.8c-23.2-21.9-34.8-49.5-34.8-82.9c0-22.1,5.3-41.9,15.9-59.1
				c10.6-17.4,25.4-30.6,44.4-39.8c19-9.3,46.5-17.3,82.4-24.1c48.4-9.1,82-17.5,100.6-25.5v-10.3c0-19.9-4.9-34.1-14.7-42.6
				c-9.9-8.5-28.4-12.7-55.7-12.7c-18.4,0-32.8,3.6-43.1,10.8c-10.3,7.2-18.7,20-25,38.2L637.4,545z M775.9,629
				c-13.3,4.4-34.3,9.7-63,15.9c-28.7,6.2-47.5,12.2-56.4,18.1c-13.5,9.6-20.3,21.8-20.3,36.5s5.4,27.1,16.2,37.6
				c10.8,10.6,24.6,15.9,41.2,15.9c18.7,0,36.5-6.2,53.4-18.4c12.5-9.3,20.8-20.8,24.7-34.3c2.7-8.8,4.1-25.6,4.1-50.5L775.9,629
				L775.9,629z"/>
			<path class="st3" d="M1135.1,425.6v82.6h-70.8v157.7c0,31.9,0.7,50.6,2,55.9c1.3,5.3,4.4,9.6,9.3,13c4.8,3.4,10.7,5.2,17.5,5.2
				c9.6,0,23.4-3.3,41.7-10l8.8,80.4c-24.1,10.3-51.4,15.5-81.8,15.5c-18.7,0-35.5-3.2-50.5-9.4s-26-14.4-33-24.3
				c-7-10-11.9-23.4-14.5-40.4c-2.2-12.1-3.3-36.4-3.3-73V508.3H913v-82.6h47.5V348l103.9-60.5v138.2L1135.1,425.6L1135.1,425.6z"/>
			<path class="st3" d="M1409.5,692.4l103.2,17.4c-13.3,37.8-34.2,66.6-62.8,86.5c-28.6,19.7-64.4,29.7-107.4,29.7
				c-68,0-118.4-22.2-151.1-66.7c-25.8-35.6-38.7-80.5-38.7-134.9c0-64.9,16.9-115.6,50.8-152.4c33.9-36.7,76.8-55.1,128.6-55.1
				c58.3,0,104.2,19.2,137.8,57.6c33.7,38.4,49.8,97.4,48.3,176.7h-259.4c0.7,30.8,9.1,54.6,25,71.6c16,17.1,35.9,25.6,59.7,25.6
				c16.2,0,29.9-4.4,40.9-13.3c11-8.8,19.4-23.1,25-42.7H1409.5z M1415.4,587.7c-0.7-30-8.5-52.8-23.2-68.4
				c-14.7-15.6-32.7-23.4-53.8-23.4c-22.6,0-41.2,8.2-56,24.7c-14.7,16.5-22,38.9-21.8,67.1L1415.4,587.7L1415.4,587.7z"/>
			<path class="st3" d="M1919.7,541.3l-102,18.4c-3.4-20.4-11.3-35.8-23.4-46.1c-12.2-10.3-27.9-15.5-47.3-15.5
				c-25.8,0-46.4,8.9-61.7,26.7s-23,47.6-23,89.4c0,46.4,7.8,79.2,23.4,98.4c15.6,19.1,36.6,28.7,62.8,28.7
				c19.7,0,35.8-5.6,48.3-16.7s21.4-30.4,26.5-57.6l101.7,17.4c-10.6,46.7-30.8,82-60.8,105.7c-30,23.8-70.1,35.8-120.6,35.8
				c-57.3,0-102.8-18.1-136.9-54.2c-34-36.1-51-86.1-51-150s17.1-114.9,51.2-151c34.1-36,80.4-54,138.5-54
				c47.7,0,85.6,10.2,113.7,30.8C1887.2,468,1907.4,499.3,1919.7,541.3L1919.7,541.3z"/>
		</g>
	</g>
	<g>
		<path class="st0" d="M75,825.8V280.5h373.8v92.3H185.1v129.1h227.6v92.3H185.1v231.8L75,825.8L75,825.8z"/>
		<path class="st1" d="M91.9,825.8V280.5h373.8v92.3H202v129.1h227.6v92.3H202v231.8L91.9,825.8L91.9,825.8z"/>
		<path class="st2" d="M110.4,825.8V280.5h373.8v92.3H220.5v129.1h227.6v92.3H220.5v231.8L110.4,825.8L110.4,825.8z"/>
		<path class="st4" d="M128.5,825.8V280.5h373.8v92.3H238.6v129.1h227.6v92.3H238.6v231.8L128.5,825.8L128.5,825.8z"/>
		<path class="st3" d="M150.3,825.8V280.5h373.8v92.3H260.4v129.1H488v92.3H260.4v231.8L150.3,825.8L150.3,825.8z"/>
	</g>
	<g>
		<polygon class="st0" points="1470.9,369.6 1217.3,369.6 1217.1,270.9 1470.9,249.3 		"/>
		<polygon class="st1" points="1657.8,369.6 1479.8,369.6 1479.8,249.3 1657.8,233.3 		"/>
		<polygon class="st2" points="1841.2,369.7 1667.8,369.7 1667.8,232.4 1840.5,217.7 		"/>
		<polygon class="st4" points="1914.8,369.7 1853.1,369.7 1853.1,216.7 1914.8,211.4 		"/>
	</g>
	<g>
		<path class="st5" d="M1284.3,928l18.4,5.8c-13,50.8-86.2,33.7-82-17.4c0-15.7,4.1-27.8,12.2-36.5c18.9-21.2,63.3-16.7,69.6,14.5
			l-18.9,4.5c-9.8-29.4-47-15.5-43.4,16C1236.1,949.1,1276.4,962.5,1284.3,928L1284.3,928z"/>
		<path class="st5" d="M1328.3,915.2l-16.4-3c3.8-23.3,44.3-25.8,55.9-9.3c6.3,15.2-2.5,44.4,6.3,59.7h-17.9
			c-0.5-1.2-1.8-5.6-2.4-7.5c-23.6,24.9-63.8-6.4-33.3-28.5c6.3-3.4,27-6.1,31.9-8.6C1355.4,903.7,1331.2,902.4,1328.3,915.2
			L1328.3,915.2z M1352.5,929.9c-6.3,2.9-24.6,2.4-24.3,12.2C1330,958.2,1356.5,953.5,1352.5,929.9z"/>
		<path class="st5" d="M1401,962.6h-18.1v-68.2h16.7v9.7c6.3-12,16.7-14.1,27.4-7.8l-5.6,15.8C1393.4,897,1402.6,945.7,1401,962.6
			L1401,962.6z"/>
		<path class="st5" d="M1444.2,915.2l-16.4-3c3.8-23.3,44.3-25.8,55.9-9.3c6.3,15.2-2.5,44.4,6.3,59.7h-17.9
			c-0.5-1.2-1.8-5.6-2.4-7.5c-23.6,24.9-63.8-6.4-33.3-28.5c6.3-3.4,27-6.1,31.9-8.6C1471.2,903.7,1447.1,902.4,1444.2,915.2
			L1444.2,915.2z M1468.3,929.9c-6.3,2.9-24.6,2.4-24.3,12.2C1445.9,958.2,1472.4,953.5,1468.3,929.9z"/>
		<path class="st1" d="M1499.2,894.4h16.8v10c17.8-25.3,52.5-5.8,49.7,23.7c2.7,28.4-29,49.3-48.5,26.1v34.4h-18.1V894.4z
			 M1517.1,927.4c-1.9,16.6,14.1,30.4,26.2,17.4c5.5-5.7,5.7-26.4-0.1-32.5C1532.1,899.8,1515.4,911.4,1517.1,927.4L1517.1,927.4z"
			/>
		<path class="st1" d="M1575.9,885.2v-16.7h18.1v16.7H1575.9z M1575.9,962.6v-68.2h18.1v68.2H1575.9z"/>
		<path class="st1" d="M1667.7,914.6l-17.8,3.2c-4.5-19.9-30.3-10.1-27.1,9.5c-3.4,22,23.9,32.3,28.1,9.2l17.7,3
			c-7.6,39.1-68.2,29.3-64.4-10.9C1600.1,890.2,1657.6,877.9,1667.7,914.6L1667.7,914.6z"/>
		<path class="st2" d="M1722.1,962.6v-10.2c-9,14.3-35.2,16.8-42.8,0.3c-4.6-8.7-1.7-47.9-2.5-58.3h18.1c1.4,11.4-3.9,48.7,4.6,54.1
			c6.5,4.6,17.5,0.5,20-7c2.3-6.2,1.1-38,1.3-47.1h18.1v68.2H1722.1L1722.1,962.6z"/>
		<path class="st2" d="M1752,886.1l8.9-19.2h20.3l-17.6,19.2H1752L1752,886.1z M1753.3,962.6v-68.2h18.1v68.2H1753.3z"/>
		<path class="st2" d="M1785,962.6v-94.2h18.1v33.9c19.5-22,51.4-3,48.6,25.5c2.7,30.1-30.8,50.3-49.9,24.8v10H1785z M1802.9,927
			c-2.3,28.5,31.6,31.5,30.2,1.7C1835.9,900.8,1801.4,899.2,1802.9,927z"/>
		<path class="st4" d="M1875.4,915.2l-16.4-3c3.8-23.3,44.3-25.8,55.9-9.3c6.3,15.2-2.5,44.4,6.3,59.7h-17.9
			c-0.5-1.2-1.8-5.6-2.4-7.5c-23.6,24.9-63.8-6.4-33.3-28.5c6.3-3.4,27-6.1,31.9-8.6C1902.4,903.7,1878.3,902.4,1875.4,915.2
			L1875.4,915.2z M1899.5,929.9c-6.3,2.9-24.6,2.4-24.3,12.2C1877.1,958.2,1903.6,953.5,1899.5,929.9z"/>
	</g>
</g>
</svg>
